<?xml version="1.0" standalone="no"?>
<!DOCTYPE svg PUBLIC "-//W3C//DTD SVG 20010904//EN"
 "http://www.w3.org/TR/2001/REC-SVG-20010904/DTD/svg10.dtd">
<svg version="1.0" xmlns="http://www.w3.org/2000/svg"
 width="385.000000pt" height="385.000000pt" viewBox="0 0 385.000000 385.000000"
 preserveAspectRatio="xMidYMid meet">
<metadata>
Created by potrace 1.11, written by Peter Selinger 2001-2013
</metadata>
<g transform="translate(0.000000,385.000000) scale(0.100000,-0.100000)"
fill="#000000" stroke="none">
<path d="M371 3824 c-180 -60 -308 -198 -356 -381 -22 -86 -21 -2949 1 -3033
46 -172 161 -300 331 -368 l68 -27 1480 -3 c1282 -2 1488 0 1537 13 187 48
320 173 383 358 l24 72 0 1470 c0 1263 -2 1478 -15 1525 -48 180 -171 311
-349 371 l-80 28 -1475 0 -1475 0 -74 -25z"/>
</g>
</svg>
