<?xml version="1.0" encoding="UTF-8"?>
<svg xmlns="http://www.w3.org/2000/svg" xmlns:xlink="http://www.w3.org/1999/xlink" width="48pt" height="48pt" viewBox="0 0 48 48" version="1.1">
<g id="surface1">
<path style=" stroke:none;fill-rule:nonzero;fill:rgb(100%,23.921569%,0%);fill-opacity:1;" d="M 2 9 L 2 39 L 46 39 L 46 9 Z "/>
<path style=" stroke:none;fill-rule:nonzero;fill:rgb(100%,92.156863%,23.137255%);fill-opacity:1;" d="M 10 13.488281 L 11.179688 17.238281 L 15 17.238281 L 11.910156 19.367188 L 13.089844 23 L 10 20.753906 L 6.910156 23 L 8.089844 19.367188 L 5 17.238281 L 8.820313 17.238281 Z "/>
<path style=" stroke:none;fill-rule:nonzero;fill:rgb(100%,92.156863%,23.137255%);fill-opacity:1;" d="M 17.472656 10.976563 L 17.828125 12.101563 L 18.972656 12.101563 L 18.046875 12.738281 L 18.402344 13.828125 L 17.472656 13.152344 L 16.546875 13.828125 L 16.902344 12.738281 L 15.972656 12.101563 L 17.121094 12.101563 Z "/>
<path style=" stroke:none;fill-rule:nonzero;fill:rgb(100%,92.156863%,23.137255%);fill-opacity:1;" d="M 17.5 24 L 17.855469 25.125 L 19 25.125 L 18.074219 25.761719 L 18.425781 26.851563 L 17.5 26.179688 L 16.574219 26.851563 L 16.925781 25.761719 L 16 25.125 L 17.144531 25.125 Z "/>
<path style=" stroke:none;fill-rule:nonzero;fill:rgb(100%,92.156863%,23.137255%);fill-opacity:1;" d="M 21.5 15 L 21.855469 16.125 L 23 16.125 L 22.074219 16.761719 L 22.425781 17.851563 L 21.5 17.179688 L 20.574219 17.851563 L 20.925781 16.761719 L 20 16.125 L 21.144531 16.125 Z "/>
<path style=" stroke:none;fill-rule:nonzero;fill:rgb(100%,92.156863%,23.137255%);fill-opacity:1;" d="M 21.5 20 L 21.855469 21.125 L 23 21.125 L 22.074219 21.761719 L 22.425781 22.851563 L 21.5 22.179688 L 20.574219 22.851563 L 20.925781 21.761719 L 20 21.125 L 21.144531 21.125 Z "/>
</g>
</svg>
