<?xml version="1.0" encoding="UTF-8"?>
<svg xmlns="http://www.w3.org/2000/svg" xmlns:xlink="http://www.w3.org/1999/xlink" width="48pt" height="48pt"
     viewBox="0 0 48 48" version="1.1">
    <g id="surface1">
        <path style=" stroke:none;fill-rule:nonzero;fill:rgb(0%,67.45098%,75.686275%);fill-opacity:1;"
              d="M 7 17.800781 C 8 15.199219 9 12.601563 10.398438 10.199219 C 11 8.800781 12 7 23.398438 7 C 32 7 39.398438 7 41 7 L 41 13 L 33.601563 13 C 31.601563 34.398438 32.402344 35 35.800781 35 C 38 35 39.601563 31.601563 39.601563 29.800781 L 41 29.800781 C 41 39.601563 36.601563 41 33.199219 41 C 29.398438 41 27 38.199219 27 34 C 27 28.601563 28.199219 22.398438 29.199219 13 L 22 13 C 20 34.398438 19.601563 41 13 41 C 11.398438 41 9 39.800781 9 36.800781 C 9 30.800781 16.199219 38 18.199219 13 C 18.199219 13 16.199219 13 15.199219 13 C 12.597656 13 10.601563 14 9 17 C 8.601563 17.800781 8.199219 18.199219 7 17.800781 Z "/>
    </g>
</svg>
