<?xml version="1.0" encoding="UTF-8"?>
<svg xmlns="http://www.w3.org/2000/svg" xmlns:xlink="http://www.w3.org/1999/xlink" width="10pt" height="10pt" viewBox="0 0 10 10" version="1.1">
    <g id="surface1">
        <path style=" stroke:none;fill-rule:nonzero;fill:rgb(0.784314%,46.666667%,74.117647%);fill-opacity:1;" d="M 5.011719 1.042969 C 4.6875 1.042969 4.460938 1.070313 4.191406 1.117188 C 3.386719 1.257813 3.242188 1.550781 3.242188 2.089844 L 3.242188 2.917969 L 5.117188 2.917969 L 5.117188 3.332031 L 2.265625 3.332031 C 1.714844 3.332031 1.234375 3.59375 1.082031 4.210938 C 0.910156 4.925781 0.902344 5.371094 1.082031 6.113281 C 1.21875 6.667969 1.519531 7.082031 2.070313 7.082031 L 2.824219 7.082031 L 2.824219 6.019531 C 2.824219 5.402344 3.386719 4.792969 4.027344 4.792969 L 5.535156 4.792969 C 6.058594 4.792969 6.574219 4.402344 6.574219 3.878906 L 6.574219 2.089844 C 6.574219 1.582031 6.210938 1.203125 5.695313 1.117188 C 5.710938 1.117188 5.332031 1.039063 5.011719 1.042969 Z M 3.972656 1.875 C 4.140625 1.875 4.285156 2.015625 4.285156 2.1875 C 4.285156 2.363281 4.140625 2.5 3.972656 2.5 C 3.796875 2.5 3.660156 2.363281 3.660156 2.1875 C 3.660156 2.015625 3.796875 1.875 3.972656 1.875 Z "/>
        <path style=" stroke:none;fill-rule:nonzero;fill:rgb(100%,75.686275%,2.745098%);fill-opacity:1;" d="M 4.808594 8.957031 C 5.132813 8.957031 5.355469 8.929688 5.628906 8.882813 C 6.429688 8.742188 6.574219 8.449219 6.574219 7.910156 L 6.574219 7.082031 L 4.699219 7.082031 L 4.699219 6.667969 L 7.554688 6.667969 C 8.101563 6.667969 8.582031 6.40625 8.734375 5.789063 C 8.90625 5.074219 8.914063 4.628906 8.734375 3.886719 C 8.597656 3.332031 8.296875 2.917969 7.75 2.917969 L 6.992188 2.917969 L 6.992188 3.980469 C 6.992188 4.597656 6.433594 5.207031 5.792969 5.207031 L 4.285156 5.207031 C 3.757813 5.207031 3.242188 5.597656 3.242188 6.121094 L 3.242188 7.910156 C 3.242188 8.417969 3.609375 8.796875 4.121094 8.882813 C 4.109375 8.882813 4.488281 8.960938 4.808594 8.957031 Z M 5.847656 8.125 C 5.675781 8.125 5.535156 7.984375 5.535156 7.8125 C 5.535156 7.636719 5.675781 7.5 5.847656 7.5 C 6.019531 7.5 6.160156 7.636719 6.160156 7.8125 C 6.160156 7.984375 6.019531 8.125 5.847656 8.125 Z "/>
    </g>
</svg>
