<?xml version="1.0" encoding="UTF-8"?>
<svg xmlns="http://www.w3.org/2000/svg" xmlns:xlink="http://www.w3.org/1999/xlink" viewBox="0 0 48 48" version="1.1"
     width="48px" height="48px">
    <g id="surface1">
        <path style=" fill:#FF6D00;"
              d="M 6 10 C 6 7.789063 7.789063 6 10 6 L 38 6 C 40.210938 6 42 7.789063 42 10 L 42 38 C 42 40.207031 40.210938 42 38 42 L 10 42 C 7.789063 42 6 40.207031 6 38 Z "/>
        <path style=" fill:#E64A19;"
              d="M 6 10 L 6 21.96875 L 10 25.96875 C 10 25.96875 21.152344 38.847656 30 30 C 38.847656 21.152344 26.019531 11 26.019531 11 L 21.015625 6 L 10 6 C 7.789063 6 6 7.789063 6 10 Z "/>
        <path style=" fill:#FFFFFF;"
              d="M 26.019531 11 C 37.449219 18.699219 33.75 27.1875 33.75 27.1875 C 33.75 27.1875 37 30.820313 35.6875 34 C 35.6875 34 34.347656 31.773438 32.097656 31.773438 C 29.933594 31.773438 28.660156 34 24.300781 34 C 14.589844 34 10 25.96875 10 25.96875 C 18.746094 31.667969 24.71875 27.628906 24.71875 27.628906 C 20.777344 25.363281 12 14 12 14 C 19.300781 20.15625 23 22 23 22 C 21.117188 20.457031 15 13 15 13 C 19.222656 17.238281 28.308594 23.378906 28.308594 23.378906 C 30.691406 16.835938 26.019531 11 26.019531 11 Z "/>
    </g>
</svg>
