<svg xmlns="http://www.w3.org/2000/svg" viewBox="0 0 412.89 344.03">
    <g fill="rgba(0, 0, 0, 0.5)" transform = "translate(200, -50) rotate(45 0 0)">
        <path d="M324.94,517.26c2.37-8.11,3.36-16.4,1.79-24.7-.89-4.75-2.89-9.29-4.52-13.88-.2-.57-1.27-1.32-1.75-1.2a4,4,0,0,0-2.23,1.59c-.54.87-.61,2-1.05,3.65a14.9,14.9,0,0,1-.68-2.32c-.64-7.19-4.94-12.21-10.06-16.63a10.6,10.6,0,0,0-14,.6c-1,1-2.14,1.94-3.41,3.08,26.43,25.76,19.69,51.36,0,77.4l7.8-2.51.27.88c-6.9,2.07-13.7,4.56-20.71,6.11-25.16,5.58-50,4.32-73.8-5.89a116.61,116.61,0,0,1-28.9-17.25c-5.55-4.62-11.15-9.36-15.84-14.82a190.5,190.5,0,0,1-23.07-33.17,170.85,170.85,0,0,1-15.31-39,159.79,159.79,0,0,1-3.23-63.56c2.27-15.72,6.72-30.75,11.9-45.67a133.29,133.29,0,0,1,14.5-29.09c5.77-8.83,11.64-17.64,18.11-26a106.77,106.77,0,0,1,20.86-20.08c7.54-5.59,15.1-11.14,22.51-16.88,7.74-6,16.48-10.12,25.42-13.84,6.3-2.62,12.65-5.18,19.16-7.19a176.55,176.55,0,0,1,41.46-7.87,233.89,233.89,0,0,1,70,6A174.46,174.46,0,0,1,380,220.69c10.51,3.91,21.08,7.88,31.09,12.89s19.73,11.22,29.32,17.29A173,173,0,0,1,460.24,265c9.36,8,18.32,16.45,27.08,25.09,6.47,6.38,12.43,13.29,18.47,20.1,4,4.52,8,9.11,11.59,14,3.34,4.55,6.18,9.48,9.12,14.32a12.78,12.78,0,0,1,.93,3.46l-.83.53c-2.51-2.39-5.37-4.51-7.44-7.23-3.38-4.41-6.3-9.18-9.33-13.86-8.66-13.39-19.32-25.07-31.05-35.77-5.23-4.76-11.36-8.57-16.28-13.6a102.3,102.3,0,0,0-17.41-13.84C433.78,250.77,421.88,244.45,410,238c-14.13-7.61-29.44-11-44.47-15.71a167.12,167.12,0,0,0-41.24-7.13,289,289,0,0,0-36.39.8,149.25,149.25,0,0,0-27.5,4.48c-14.17,3.8-28.44,7.83-41.22,15.26-14.82,8.62-29,18.35-41.49,30.15-6.63,6.28-12,13.89-18,20.82a28.61,28.61,0,0,0-6.51,13.2c-.92,4.27-3.12,8.34-2.15,12.84,1.5,7.05,3.08,14.09,5,21,1.72,6.17,4.27,12.11,5.93,18.3,2.26,8.48,4,17.09,6,25.63.77,3.24,1.86,6.4,2.61,9.65a12.35,12.35,0,0,0,7,8.53c12.49,6.38,25.11,8.26,37.89.94a42.6,42.6,0,0,0,6-4.66c7-5.85,13.72-11.91,20.79-17.6,19.94-16.06,42.13-17.09,65.51-9.39a54.65,54.65,0,0,1,7.39,2.88c17.18,8.62,29.28,22.05,37.62,39.25,4,8.21,5.45,16.9,6.86,26-1.37-2.48-2.7-4.62-3.76-6.89-1.46-3.16-4.13-4.27-7.22-5.29-2.24-.75-4.22-2.4-6.18-3.83a21.41,21.41,0,0,1-4-4c1.41.62,2.86,1.14,4.21,1.87,4.71,2.53,10.76,2.9,13.27,9l.85-.7c-2.3-5.91-4.57-11.84-6.95-17.73a10.72,10.72,0,0,0-2.32-4,34.3,34.3,0,0,0-5.46-3.45c-.55-.32-1.58-.45-1.66-.83-.94-4.36-4.78-4.26-7.89-5.17a41.77,41.77,0,0,0-5.49-1,8.89,8.89,0,0,0-9.75,5.29c-.95,2.16-1.6,4.47-2.65,6.58-.33.66-1.53.92-2.36,1.28a34.11,34.11,0,0,0-4.71,2c-.46.28-.55,1.74-.27,2.44a2.26,2.26,0,0,0,2,.76c2.75-.69,5.45-1.6,8.17-2.43,1.43-.44,1.93-1.21,1.07-2.62a23.92,23.92,0,0,1-1.11-2.35c2.87-2.12,4.25-2.1,6.41,1.11a9.53,9.53,0,0,0,6.43,4.06c2.44.55,5.2,1.08,5.88,4.36-.5.2-.86.47-1,.39-4-2.41-6.87.31-9.82,2.24-1.88,1.22-1.73,3.34.26,4.9,1.67,1.32,3.48,2.44,5.24,3.65l-.5.89c-2.89-1.57-5.86-3-8.65-4.75-3.31-2.07-6.17-2.06-8.48.65-.7.81-1.45,2.43-1.1,3.14.75,1.49,1.37,3.31,3.88,3.37,7,.19,7,.33,10.41,3.5l-5.33,1.6,4.34,3.71-.49.65a15.86,15.86,0,0,1-2.84-1.18c-4-2.68-8.34-2.45-12.74-1.61-2.6.5-4.4,1.89-4.72,4.8-.24,2.31-.69,4.59-1.09,7.13,3.83,0,7.35-.32,10.79.09s6.61,1.53,10.29,2.44c-3.17,3.92.49,6.53.93,9.6l-.71.63a18.22,18.22,0,0,0-2-2.58c-4.32-3.93-8.86-7.43-15.09-7.56-2.12,0-3.76.52-4.92,2.49-1.42,2.41-3.09,4.68-4.84,7.3,2.64,1.25,4.9,2.36,7.19,3.4,14,6.42,21.16,17.82,22.48,32.67.6,6.81-.79,13.8-1.41,20.7a11.44,11.44,0,0,1-1.36,3.19Zm-189.58-47.2c.79,1.69,1.18,2.67,1.69,3.59,4,7.07,7.91,14.16,12,21.18s9.73,11.95,18.44,12.1a12.33,12.33,0,0,1,3.18.55c.57.17,1.42.64,1.5,1.09.5,2.85,2.77,3.49,5,3.85,8.21,1.37,16.5,2.3,24.51-.76,2.82-1.07,5.27-3.14,7.86-4.81.85-.55,1.51-1.56,2.43-1.85a20.18,20.18,0,0,1,4.35-.59c5.73-.51,10.76-2.38,13.8-7.63a66.69,66.69,0,0,0,5.56-10.95c2.6-7.41,3.09-14.9-1.49-22.07-2.7,3.5-5.22,7-8,10.27-3.5,4.2-6.91,8.84-12.64,10a110.07,110.07,0,0,1-15.08,1.53c-2.61.15-4.92.22-5.58,4-2-4.26-4.55-1.63-7.45-1.8l2.39,3.89c-4.35-4.85-10.35-3.82-15.73-4.76a22.29,22.29,0,0,1-3.18-.59c-5.92-2-12.06-3.56-17.66-6.23C145.91,477.47,141.15,473.75,135.36,470.06Zm39.48,5.33.35-.56c3.88,1.73,7.84,3.33,11.64,5.24,4.68,2.34,9.4,3.86,14.17.7a120.18,120.18,0,0,0,12.19-9.09c4.42-3.83,6.74-9.1,8.32-14.62a34,34,0,0,0,.65-6.1l-.91-.39c-2.65,1.62-5.35,3.15-7.93,4.88-6.74,4.51-14,7.56-22.15,5.52a102,102,0,0,1-15-5.59c-4.63-2-6.5-1.23-7.29,3.51-2.27-5-2.93-5.49-5.85-4.18.56,1.54,1.14,3.1,1.71,4.65a7.12,7.12,0,0,1-3.25-3.08c-2.21-5.07-6.59-7.62-10.9-10.59a108.08,108.08,0,0,1-16-13.15c-5.2-5.33-9.51-11.53-14.12-17.24.41,3.32.58,7.14,1.39,10.82,1.71,7.73,3.56,15.44,5.73,23.05,1.31,4.58,2.83,9.4,7.6,11.73,4.61,2.26,9.41,4.14,14.12,6.22.86.38,1.65.92,2.64,1.48l-1.82,2c4.6,6.24,23.11,11.06,26.77,7ZM165,512.82l-.52.61a11,11,0,0,0,1.6,2.26c6.36,5.33,12.45,11.06,19.25,15.74,6.12,4.22,13.11,6.77,20.81,3.65.49-.2,1.49-.24,1.62,0,1.3,2.43,3.37,1.57,5.2,1.21a66.05,66.05,0,0,0,9.37-2.3c7.44-2.69,14.15-6.6,18.88-13.22a2.83,2.83,0,0,0,.66-1.86c-.33-1.75.68-2.34,1.94-3.13,2.81-1.76,6.11-3.24,8.09-5.72,7.61-9.51,7.63-20.15,3.31-31-1.17-3-3.59-5-6.86-6.32-.81,2.47-1.57,4.67-2.26,6.89-3.28,10.41-8.06,19.59-19.05,23.88-1.31.52-2.3,1.81-3.5,2.64-3.21,2.21-6.19,5.05-9.73,6.43a66.68,66.68,0,0,1-39.56,2.79C171.17,514.62,168.11,513.66,165,512.82Zm38.13,27.07-.28.89a14.26,14.26,0,0,0,3.1,1.91c7.68,2.34,15.27,5.16,23.12,6.65,6.43,1.22,13.37,1.89,19-3.33a2.55,2.55,0,0,1,1.31-.34c1.23-.18,2.75.07,3.66-.56A128.73,128.73,0,0,0,263.78,537,39.64,39.64,0,0,0,275,521.49c1-2.47,1.93-5-.84-7.06.3-.52.47-.87.69-1.19,8.39-11.89,7.7-23.93-.52-33.18-3.07-3.46-6.69-4.23-10.73-4.6,0,4-.1,7.73,0,11.43.22,7.31-1.32,14-6.19,19.72a11.2,11.2,0,0,0-1.71,2.73,46.55,46.55,0,0,1-16.38,19.19,61.68,61.68,0,0,1-30.69,10.86Zm-49.44-117.8-1.17-.23c-.62-3.15-1.12-6.34-1.89-9.45a17.13,17.13,0,0,0-2.1-5.36c-1.9-2.83-4.2-5.38-6.29-8.08a85.76,85.76,0,0,1-14-27.26c-1.07-3.39-2-6.82-3.19-10.85-2.55,11.12-5.14,21.61-4.69,32.48.22,5.36.88,10.85,5.64,14.57,6,4.7,12,9.35,18,14,.63.48,1.18,1.06,1.77,1.6l-.43.78c-1.12-.36-2.24-.7-3.35-1.07-1.3-.44-2.2-.25-2.08,1.36.14,1.88,3.58,5.31,5.43,5.16.75-.06,1.56-1,2.08-1.68.37-.49.29-1.32.41-2a7.06,7.06,0,0,1,2.42.6,28.36,28.36,0,0,1,4.53,3.7c5.65,6,11.3,11.94,16.72,18.12a8.58,8.58,0,0,0,6.62,3c7.86.4,15.3-1.15,21.84-5.44,4.29-2.81,8.05-6.44,12-9.8.78-.67,1.18-1.79,2.16-3.34l-4,.71c-4.67.87-9.32,2.28-14,2.46A27.62,27.62,0,0,1,185,434.1c-7.54-3.07-13.33-8.81-19.34-14.13-4.37-3.87-4.9-3.83-7.43,1.24-.06.12-.34.14-.52.2l-2.64-4.13C154.49,419.4,154.11,420.75,153.72,422.09ZM299.2,501.84c.21-4,.9-8,.51-11.79-.69-6.83-3.19-12.92-9.53-16.67-4.3-2.55-8.53-1.64-12.79-.23,14.34,35.24,1.31,59.5-29.55,77.3a16.92,16.92,0,0,0,2.67.35c5.77-.22,11.55-.37,17.31-.8A34.22,34.22,0,0,0,292,537.85a48.13,48.13,0,0,0,9.77-17.57,80.66,80.66,0,0,0,2.53-12.94C304.9,502.85,302.48,500.48,299.2,501.84ZM194.51,418.93a4.37,4.37,0,0,0-.74-.44c-8.66-2.91-15.16-8.58-20.81-15.62-3.67-4.57-8-8.6-12.13-12.78a2.71,2.71,0,0,0-2.32-.68,2.51,2.51,0,0,0-.95,2.12A46.44,46.44,0,0,0,166.34,413c2.76,3.74,7.32,4.26,11.42,5.51.46.14.87.45,1.33.59A25.53,25.53,0,0,0,194.51,418.93Zm-57-95.28-.38-.2c-1.16,3.14-2.29,6.29-3.47,9.43-3.07,8.24-2.73,16.28,1.53,24,3.52,6.4,7.08,12.78,10.77,19.08a37.83,37.83,0,0,0,3.82,4.71l.82-.22a19.46,19.46,0,0,0-.48-4.35,64.09,64.09,0,0,0-2.82-6.42,92.7,92.7,0,0,1-7.87-26.63C138.61,336.63,138.17,330.12,137.54,323.65ZM311.2,388.27l.2,1c10.62-3.59,20.31-.52,30.43,3.95-3.65-5.26-7.17-9.57-11.85-12.89-4.92-3.5-7.12-3.57-11.88.11-1.26,1-2.28,2.4-4.36,1.42-.53-.25-1.7.85-2.59,1.33l.35.69,3.11-.28.34.7Zm-14.91-10.78,18.83-5.65c-2.37-.93-4.76-1.92-7.19-2.83-1.78-.66-3.64-1.77-5.4-1.67s-4,1.13-4.64,2.45C296.8,372,296.8,374.73,296.29,377.49ZM271,380.57l.87.17,11.87-13.12a12,12,0,0,1-1.78-.1c-7-1.22-8.56-.17-9.88,6.69C271.7,376.32,271.38,378.45,271,380.57ZM262.38,370a16.4,16.4,0,0,0-8.82,7c-2.3,3.67,1.13,6.5,1.65,9.49C257.49,381.24,259.84,375.83,262.38,370Z"
              transform="translate(-114.53 -208.58)"/>
        <path d="M324.9,517.2c-.2,1-.44,2.08-.6,3.12-.21,1.46-.37,2.92-.56,4.38l.67.35-7.4,5.68,7.93-13.46Z"
              transform="translate(-114.53 -208.58)"/>
        <path d="M346.35,491.74c1.27,4.08.92,5.57-2.53,8.39.6-3.3,1.08-5.95,1.55-8.59Z"
              transform="translate(-114.53 -208.58)"/>
    </g>
</svg>
