<svg xmlns="http://www.w3.org/2000/svg" viewBox="0 0 1007 333.75">
    <defs>
        <linearGradient
                id="gradient1"
                gradientUnits="objectBoundingBox"
                x1="0"
                y1="0"
                x2="0"
                y2="1"
        >
            <stop stop-color="#dadada" offset="0"/>
            <stop stop-color="#dfdfdf" stop-opacity="0.8" offset="0.1"/>
            <stop stop-color="#eaeaea" stop-opacity="0.7" offset="0.2"/>
            <stop stop-color="#eeeeee" stop-opacity="0.7" offset="0.3"/>
            <stop stop-color="#fafafa" stop-opacity="0.5" offset="0.5"/>
            <stop stop-color="#fafafa" stop-opacity="0.1" offset="1"/>
        </linearGradient>

        <linearGradient
                id="gradient2"
                gradientUnits="objectBoundingBox"
                x1="0"
                y1="0"
                x2="0"
                y2="1"
        >
            <stop stop-color="#e8e8e8" stop-opacity="0.9" offset="0"/>
            <stop stop-color="#f0f0f0" stop-opacity="0.6" offset="0.15"/>
            <stop stop-color="#fafafa" stop-opacity="0.4" offset="0.4"/>
            <stop stop-color="#fefefe" stop-opacity="0.1" offset="0.6"/>
        </linearGradient>

        <linearGradient
                id="gradient3"
                gradientUnits="objectBoundingBox"
                x1="0"
                y1="0"
                x2="0"
                y2="1"
        >
            <stop stop-color="#eaeaea" stop-opacity="0.8" offset="0"/>
            <stop stop-color="#f2f2f2" stop-opacity="0.7" offset="0.2"/>
            <stop stop-color="#fefefe" stop-opacity="0.1" offset="0.6"/>
        </linearGradient>

        <filter id="blurry1" x="0" y="0">
            <feGaussianBlur in="SourceGraphic" stdDeviation="2"/>
        </filter>

        <filter id="blurry2" x="0" y="0">
            <feGaussianBlur in="SourceGraphic" stdDeviation="2.5"/>
        </filter>

        <filter id="blurry3" x="0" y="0">
            <feGaussianBlur in="SourceGraphic" stdDeviation="3"/>
        </filter>
    </defs>

    <g fill="url(#gradient1)" filter="url(#blurry1)">
        <path d="M287.69,446.8l-1.79-1a6.69,6.69,0,0,0-.84.31c-.38.19-.74.63-1.09.61-3.58-.21-7.11,1.1-10.71.38a4.56,4.56,0,0,0-1.89-.16c-4,1-7.94.31-11.94,0-4.35-.29-8.73-.13-13.1-.05-8.28.16-16.59.9-24.84.48-8-.41-15.93-.39-23.9-.47-1.68,0-3.36.24-4.69.34-3.17-.13-6-.32-8.83-.35-4.69-.06-9.38.11-14.07-.05-3.79-.13-7.54-.39-11.29.57-.93.24-2.06-.41-3.1-.46-2-.1-4.05,0-6.07-.08-3.71-.1-7.41.17-11.12-.53-2.12-.4-4.41.1-6.62.37-2.93-.63-5.82-1-8.69.52a4.84,4.84,0,0,1-2.5.26c-2.86-.19-5.7-.44-8.55-.72a9.47,9.47,0,0,1-1.76-.5,66.69,66.69,0,0,1-8.23,1.15c-2.51.05-5-.62-7.54-.88-1.36-.13-2.73-.08-4.1-.08-2.52,0-5,0-7.55,0a42.44,42.44,0,0,0-5.4-.09,68,68,0,0,1-18.08,0,21,21,0,0,0-2.86-.11c-6.29,0-12.58.06-18.86,0-13.08-.17-26.17-.2-39.23-.74-4.45-.19-8.95,0-13.33-.64-5.12-.69-10.2-.24-15.28-.54-5.7-.34-11.4-.83-17.1-1.22-1.38-.09-2.77.05-4.15-.06-4.85-.35-9.7-.77-14.55-1.16a4.93,4.93,0,0,0-1.58,0c-3.88,1.08-7.85.57-11.75.44-2.15-.07-4.25-1.21-6.39-1.8-1.72-.48-3.49-.81-5.2-1.31a50.92,50.92,0,0,1-5.72-1.86c-3-1.25-5.94-2.68-8.83-4,1.34-5,6.77-8.26,12.91-8.14,2.44.92,4.91,1.8,7.33,2.78s4.79.08,6.82-.62c3.63-1.24,7.07-1,11.15-.25,1.68-1.1,3.55-2.79,5.74-3.62s4.76-.84,7.73-1.29l1.83-1.76v-2.72l-3-2.15-6.38,1.64c-3-1.52-4.67-5.15-8.69-5.45-2.43,1.84-5.46,1.14-8.53,1.23-3.47-2.65-7.59-2.73-12.08-2.47-1.33.44-2.8,2.07-4.79.66v-4.86c-3.1-1.66-6.91-2.2-9-5.45-3.52.48-6.07-1.11-8.48-3.19a6.23,6.23,0,0,0-2.86-1.26,4.77,4.77,0,0,1-3.71-3.53c-1.32-3.65-1.87-4.07-5.71-4.19a15,15,0,0,1-2.82-.39c-3.09-.71-6.19-1.39-9.24-2.27a28.78,28.78,0,0,1-4-1.77,3.26,3.26,0,0,1-.56-4.39c-3.11-3.83-6.31-7.1-11.29-8-3.54-.64-6.29-3-9.3-4.74-.31-.18-.43-.69-.8-1.33l5-3.85.16.34,10.47-3.28-.07-.28,2.87-.12-.1-.42,8.26-2.1c1.61-.94,4.45-1.17,7.25-1.57,1.31-.35,2.63-.65,3.91-1.07,2.08-.68,4.13-1.44,6.19-2.16l2.91-1c3.18-1,6.33-2.16,9.54-3.09s5.76-3.11,8.76-2.69c5.16-1.93,10.44-2.17,15-4.62,1.23-.51,2.43-1.08,3.69-1.5a10.8,10.8,0,0,1,3.39-.8c3.82.05,7.62.3,11.44.46,1.48.06,3,.08,4.46.11a12.85,12.85,0,0,1,5.55.94c1.51.72,3.54.33,5.16.43,4.47-2.47,9.81-2.55,13.26-6.42,3.08.13,6.12-.86,8.76,1.2H-24c2.29,1.75,5.06,1.82,7.06,2,4.31,1.42,7.78,3,11.35,4.41s7.33,2.32,12.3,3.86c1.6,0,4.58,0,7.56,0a14.7,14.7,0,0,1,8,2.35,54.71,54.71,0,0,0,6.79,3.19c1.89.85,3.81,1.65,6.29,2.72H43.8l13.4-5.43,2.23-2.06h7.42c.54.29,1.26,1,2,1,3.29.12,6.6.05,9.63.05,5.63-2.27,10.93-4.75,16.72-5.84,5-3.31,11-3.81,16.86-6.23h3.86c2.79-2.18,6-1.23,9-1.22s6.17-1,9,1.18h2.77c4.25,1.66,7.86,4.09,12.46,4a16.63,16.63,0,0,1,7.07,1.52,10.26,10.26,0,0,0,5.56.8l2.09-2,.1.22,10.41-5c.37-.18.67-.55,1.06-.66,3.22-.9,6.41-2.12,9.69-2.52a64.09,64.09,0,0,1,11.17-.08,23.9,23.9,0,0,1,5.73,1.51c10.17,1.42,19.77-1,29.61-4.82l4.9,1.29a53.32,53.32,0,0,1,5.27-1.91,14.72,14.72,0,0,1,5.56-.33c2.75,1,5.53,1.89,8.25,3a29.17,29.17,0,0,1,4.47,2.24c1.51.94,2.84,2.17,4.33,3.15a17.9,17.9,0,0,0,3.07,1.52c1,.42,2.14.7,3.19,1.14,8.21.53,8.46.51,11-1.07,6.24.81,11.25-3.38,17-5.05h5.08c2.48,1.06,5,2.08,7.41,3.17a29.39,29.39,0,0,0,2.71,1.52c2.67.86,5.41,1.51,8.09,2.33a27.5,27.5,0,0,1,2.52,1.19c4.52,1.91,9.05,3.79,13.56,5.71.76.33,1.42.89,2.16,1.28,3.63,1.95,7.6,2.91,11.58,3.86,1.9.46,3.79,1,5.67,1.6,1.18.36,2.3.91,3.49,1.25,3.2.93,6.2,2.38,9.33,3.47,5.24,1.82,10,4.86,15.49,6.09,3.18.7,6.11,2.51,9.18,3.78.67.27,1.42.32,2.12.53a42.68,42.68,0,0,1,4.71,1.69c2.55.09,5.09.27,7.14,2l2.63.13c1.89.64,3.15,1.17,4.47,1.5,2.63.66,5.31,1.15,7.94,1.83a36.08,36.08,0,0,1,3.83,1.43,32.57,32.57,0,0,0,5.66,1.84c3.49.69,6.82,2.16,10.25,3.21,2.72.83,5.51,1.47,8.23,2.29,5.73,1.74,11.79,2.25,17.34,4.73,1.68.76,3.71.73,5.59,1,.73.11,1.64-.14,2.2.22,3.78,2.41,8.41,1.95,12.38,3.76,1.21.55,2.68.5,4,.82,5.33,1.25,10.65,2.55,16,3.82,2.78.66,5.56,1.31,8.35,1.92a23.28,23.28,0,0,0,2.51.33c.43,0,.9-.12,1.27,0,3.62,1.39,7.49,1.11,11.06,1.66,1.81-.22,3.51-.74,5.15-.57,8.11.82,16.37-.82,25.09,1.4L556.7,404l-2.38,3-3.09.57c.73,2.31,2.74,1.26,4.28,2l1.22,1.83-2.16,4.2c-1.25,0-2.41,0-3.57,0-1.71,0-3.41-.07-4.94.9a3.18,3.18,0,0,1-1.22.35c-5,.75-5.45,1.06-8,5.36-4.06-1.55-8.32-.56-12.48-.87l-2.58,1.9h-5.91c-1.93,2.26-4.4,2.82-7.21,2.64a17.49,17.49,0,0,0-3.51.35l-8.37-1.06a3.06,3.06,0,0,1-1.22-.32c-3-2-6.31-1.57-9.58-1.56-2.36,0-4.64.07-6.66-1.58a6.75,6.75,0,0,0-3-.94,1.9,1.9,0,0,0-2.35,1.12c.59,2.28,2.9.73,3.89,1.75-.35,2.11-.68,4.13-1,6.37-2.69.21-2.66-3.15-5-4l-4.72,2.42c-.78,2.23,1.41,3.54,1.49,5.9l-1.84,2.12-5.14.49c1.59,2.23,4.2,1.06,5.64,2.61a2.62,2.62,0,0,1-2.31,2.31c-4.93,1.22-9.84,2.5-14.77,3.7a10.81,10.81,0,0,1-2.55.13q-31.32,0-62.64,0c-1.47,0-2.94-.27-4.26-.39-2,.14-3.92.38-5.81.39-15.56,0-31.11,0-46.62.47a42,42,0,0,1-5.19.78c-3.94.12-7.88.11-11.82,0-2.86-.07-5.7-.46-8.55-.5-1.89,0-3.78.47-5.67.49-1.58,0-3.15-.39-4.73-.43C291,446.41,289.59,446.64,287.69,446.8Zm-12.06-18.42a47.54,47.54,0,0,1,5.59-.89c3.48-.12,7,0,10.45,0,2.95,0,6,.5,8.82-.22a20.11,20.11,0,0,1,8.44-.42c2.29.36,4.59.65,7.11,1,5.89-5.36,11.52-11.18,19.32-14.07,3.77.2,7.29-2,11.19-1.53.35,0,.8-.76,1.61-1.59l-4.2-1.31a39.72,39.72,0,0,1-9.15.93c-3.58-.12-7.14-.78-10.72-1-3-.19-6-.07-8.93-.16s-5.82-.43-8.72-.38c-2.41,0-4.82.46-7,.69-4.22-3.45-8.76-2.84-13.46-2.55v3.46c.75,3,4.11,4.2,4.62,7.27-2.52,1.49-3.08-1.42-4.66-2H280.7l-4.92-3.81-4.34,1.12c-1-3.56.67-7.25-1.38-10.61-4.07-.6-7.92-2.23-12.16-2-3.08.16-6.34-.5-9.21.3a36.12,36.12,0,0,1-10.72,1,18.39,18.39,0,0,1-5.9-1,14.66,14.66,0,0,0-5-.85c-6-.18-12.09-.42-18.13-.64a4.5,4.5,0,0,1-1.27-.13,10.78,10.78,0,0,0-10.6,1.95L192,401l-1.61,2.63-4.52-1.55-4.28,5.1c1.05,1.6,2.42,1.85,4,2,4.62.43,9.23,1,14,1.49l6.09,9.75c-1.3,1.71-3.52.35-5.57,1.32-2.13,1.72-1.63,5-3,7.48-.25.46.26,1.33.46,2.24a23,23,0,0,0,3,0c1.67-.24,3.31-.81,5-.91a42.68,42.68,0,0,1,6.29.17c1.55.14,3.08.59,4.63.81.94.14,2-.18,2.85.18,3.47,1.53,7.11,1.16,10.7,1.09,3.78-.08,7.67.74,11.28-1.15a3.5,3.5,0,0,1,1.27-.1,78.75,78.75,0,0,0,15.34-2.31c4.48-1.17,8.95-2.37,13.16-3.49ZM3.3,427.43c3.17,1,6.18,1.39,9.25.37a4.44,4.44,0,0,1,1.59-.06c3.81.21,7.62.41,11.42.69a5.52,5.52,0,0,1,1.74.68,7.56,7.56,0,0,0,6.2.21c3.42-1.54,7.06-.95,10.55-1.72,2.51-.56,5.28.13,7.94.11a13.29,13.29,0,0,1,7,1.55,30.75,30.75,0,0,1,4.48-.85c4.15-.1,8.32.14,12.46-.09,3.47-.2,6.91-.87,10.37-1.34a1.19,1.19,0,0,0,.29-.12l2.17-1.58c3.62-.26,3.62-.26,4.95-2.21A5.78,5.78,0,0,0,87.05,422c-.6-.31-1.25-.43-1.5-.82-1.51-2.33-3.76-2.48-6.19-2.39a19.14,19.14,0,0,1-5.41-.12c-2.41-.64-4.55-.62-6.41.7L60.9,416l-4.85,3.53c-3.07-.79-5.84-1.3-8.5-.2a18.72,18.72,0,0,1-8.38,1.42,15.84,15.84,0,0,0-2.49.43c-2.31.3-4.61.69-6.93.78-2.86.12-5.73-.1-8.47,1.11a6,6,0,0,1-2.52.2q-8.75-.35-17.49-.76c-.19,0-.37-.18-.25-.12l-3.6-3.84c-3.25,3.65-6.53,1.92-9.72.23-.69,3.55-.47,3.81,3.68,5.06C-3.77,422.4-1.12,422.58,3.3,427.43Zm165-15.42c3.91-2.61,4.69-5.1,3.13-9.67-2.55-.66-3.15,2.15-5,2.7a49.25,49.25,0,0,0-4.74,1.66c-2.29.95-4.54,1.68-7.08.84a23,23,0,0,0-4.61-.88,26.18,26.18,0,0,0-3.17,0c-1.22-1.73-2.17-3.09-2.65-3.78-2.5-.79-4.18-1.39-5.9-1.83-1.42-.36-3-.92-4.34-.69-4.33.74-8.89.25-13.3,2.55l-.36,1.94,3.68,2.78c1.58-2.71,4-2.36,6.36-2.19,2.09.15,4.17.56,6.3.87a2.85,2.85,0,0,1,1.53,2.87c0,.85.06,1.71,0,2.55-.23,2.82.18,5.34,2.89,6.58.32,1,.56,1.84.71,2.34,1.82,1.73,3.81,1.36,5.7,1.35s3.59,2.17,5.9.83l1.24-2.74.26.21,3.81-4.66,6.78-3.83ZM-38.13,437c-2.13-1.42-3.93-3.32-6.54-3.6a13.86,13.86,0,0,0-3.41-.37,55.14,55.14,0,0,1-14.52,0,63.27,63.27,0,0,0-9.54-.05,9.16,9.16,0,0,0-2.71,1.06,7.54,7.54,0,0,0,5.17,2c4,.11,8,.4,12,.64a9.26,9.26,0,0,1,1.54.35l5.62,1.35c1.81,1.69,4.05,1.85,6.67.47A33.6,33.6,0,0,1-38.13,437Zm195.07-9.06c1.87,3.8,3.87,4.76,8.15,4.25,2.19-.26,4.4-.5,6.6-.6a8.23,8.23,0,0,0,6.1-3.12l-2.07-1.79-3.73.41-2.66-2-4.06.44c-1.77-.37-3.27-2.45-5.67-1.15v2.29Zm227.6-11.8c-4.82,2.44-9.61.95-14.38.82l-1.34,3,3.73,3.86c4.49.41,7.75-3.56,12.2-3.22l1.58-2.19Zm-271.6,7.11,4.4-.88c1.1-1.11,1.1-1.11,1.3-2.82a19.89,19.89,0,0,0-3.94-.71c-2.63.06-5.26.34-7.88.63a5.65,5.65,0,0,0-1.69.8l.08.63Zm36.5,7.63,5.28-3.19c-1.21-1.6-2.45-1.26-3.7-1C149.92,427.82,148.39,428.69,149.44,430.88Zm28.43-7.48c1.43.26,2.53,1.5,4.37-.16L178.66,422Zm208,18.36c-1.57-.66-2.38-.77-3.4.46a11.54,11.54,0,0,0,1.76.17A8,8,0,0,0,385.89,441.76Zm-251.41-20.7,1.56,1.46c.27-.58.44-1,.78-1.71Zm44.21-14.41,1-1.66h-2Z"
              transform="translate(196.3 -214.14)"/>
    </g>
    <g fill="url(#gradient2)" filter="url(#blurry1)">
        <path d="M-171.63,303.5H-176l2-4.28c-2.78-2.26-6.22-.64-9.26-1.61-.1-2.41,1.31-3.76,3.08-4.8s3.75-2,6.07-3.21c.74-.27,2.4.62,3.2-1.06a1.36,1.36,0,0,0-1.74-1.39,5.4,5.4,0,0,1-5.18-1.63,14.33,14.33,0,0,0-2.76-1.6l-.29-2.24a9.57,9.57,0,0,0-2.68,0c-3.15.93-6.25,2-9.39,3a23.08,23.08,0,0,1-3.05.5c-.48-3.87-.18-7.45-.22-11.13a191.92,191.92,0,0,1,23.11-8.81c3.38-.2,6.76-.46,10.14-.58a16.28,16.28,0,0,1,8.26,1.62c2.38,1.2,5.15,1.62,7.75,2.39l5.88,5.09,18.93-.82c2.36-1.22,2.36-1.22,7.64-1.68,1.71-.29,3.42-.59,5.13-.86.94-.15,1.89-.24,2.83-.4a15.32,15.32,0,0,1,10.2,1.46c4.81,2.6,9.56,5.32,14.35,8a10.29,10.29,0,0,0,1.44.63c4.92,1.79,9.83,3.6,14.77,5.33a15.76,15.76,0,0,0,2.92.47L-51.47,292l-.15.6h-5.5l-8.61,4.26c-.35,1.12.89,1.66,1.9,2.39,2.46,1.79,4.88,3.64,7.42,5.55l-.92,2.22c-2.79,1.18-5.48,2-8.22-.23l-.57-2.82-1.69-.9L-71.22,305a7.18,7.18,0,0,1-5.8-4,9.84,9.84,0,0,0-2.78,1A16.14,16.14,0,0,1-85.39,305a6.21,6.21,0,0,0-1.76.74,21.56,21.56,0,0,1-10.15,3.1c-1.89.16-3.75.51-5.46.75-3.38-2.65-7.1-3.43-10.91-4a5,5,0,0,1-1-.05c-4.29-1.6-7.8.33-11.41,2.5a28.05,28.05,0,0,1-9.63-.85c-5.74-1.48-11.55-2.66-17.67-4-1.78.81-3.6.35-5.68-.71a22.3,22.3,0,0,0-7.31-1.86c-1.09-.14-2.37.7-3.46,1.28A10.17,10.17,0,0,0-171.63,303.5Zm14-5-1.63,3,3.53.17C-155.18,300-155.44,299-157.64,298.5Z"
              transform="translate(196.3 -214.14)"/>
    </g>
    <g fill="url(#gradient2)" filter="url(#blurry2)">
        <path d="M490.88,403.28c3.69,0,6.11-.19,8.49,0,8.44.79,16.86,2.32,25.29,2.35,4.74,0,9.81-1.66,14.16-3.77,7.46-3.61,15.32-2.83,22.37-1.17,11.39,2.68,21.16-1.1,31.27-4.44,7.88-2.59,15.78-5.23,23.45-8.37,8-3.27,15.64-7.27,23.51-10.77,3.44-1.53,7.06-2.64,11.73-4.35a26.84,26.84,0,0,0-4.18-2.65,4.59,4.59,0,0,0-3,0c-7.1,2.45-13.55.53-20.14-2.25-2.45-1-5.66-.15-8.46-.55-5.79-.82-11.55-1.92-17.32-2.9l0-2.22,6.23-.66c.84-4.33,4.41-5.94,8.78-6.72,4.71-.85,9.36-2,14.06-2.94,3.68-.73,5.12-3.72,2.33-6.51s-6.6-4.15-9.69-6.54c-1.2-.93-2.39-3-2.22-4.36.49-3.83-2.37-4.8-4.66-5.39-1-.26-3.55,2-4,3.54-1.26,4.5-2.67,8.29-8.38,7.88-.31-6.37-.29-6.18-6.39-5.46-1.67.2-4.29-.64-5-1.87-.64-1.05.2-4,1.35-5,6.48-5.61,13.3-10.82,19.87-16.32,1.11-.93,2.43-2.8,2.17-3.89a6,6,0,0,0-3.33-3.68c-3.9-1.35-8-2.77-12-2.92-3.19-.11-7.13.79-9.52,2.74A31.1,31.1,0,0,1,573,311c-3.46.61-6.71,2.37-10.89,3.93-1.67-2.23-4.79-1.07-8.57-.48-6.42,1-13.11.05-19.66.48-4,.25-9.2-2.61-11.59,3.49a2.67,2.67,0,0,1-2,1.26c-9.43.45-18.27,4.52-27.42,5.29-13.95,1.18-27.57,3-40.77,7.68a.85.85,0,0,1-.48.1c-2.83-.84-5.65-1.7-8.47-2.55,2.06-2.12,3.76-4.95,6.25-6.18a97,97,0,0,1,15.32-5.67c2.42-.72,5.15-.33,7.73-.58,4.82-.47,9.66-.92,14.46-1.59,6.39-.89,12.74-2.1,19.13-3,6.21-.85,12.47-1.42,18.7-2.16,1.15-.14,2.51-.15,3.37-.77,9.18-6.68,20.63-8.24,30.47-13.73,6.38-3.56,11.82-6.88,14.77-13.63.23-.53,1-1.3,1.39-1.21,4.71,1.14,9.73-2.18,14.45,1.66,2.18,1.78,6.27,1.05,8.83,2.57,13.59,8.08,29.74,7.9,43.92,14,7.48,3.21,14.81,6.78,22.46,9.51,5.37,1.92,11.13,2.81,16.77,3.91,3,.59,6.4,1.55,9.18.77a77.55,77.55,0,0,0,17.69-6.9c4.68-2.68,9.16-2.21,13.82-1.73,14.5,1.5,29,3.19,43.47,4.84a21.69,21.69,0,0,1,3,.82c-.8,6.62-5,10.81-9.39,15a13.33,13.33,0,0,0-3.64,6.22c-1,4.63-3.69,7.49-7.62,9.83-3,1.75-6.53,3.7-7.93,6.51-2.66,5.37-5.24,6.3-10.36.81.71,2.65,1,3.8,1.2,4.5-3.34,1.83-6.58,3.29-9.4,5.33-.91.66-.73,2.84-1.05,4.32,1.38.07,2.88.54,4.11.16,8-2.53,16-5.26,24-7.89a12.59,12.59,0,0,1,2.18-.34c.31.57.67,1,.59,1.12-5,7.58-9,15.49-16.42,21.65-8.85,7.39-16,16.79-23.93,25.29a23.63,23.63,0,0,1-3.61,3.17c-2.5,1.74-4.95,3.7-7.72,4.88-3.41,1.46-7.19,2-10.68,3.32a54.82,54.82,0,0,0-6.89,3.65c-1,.52-1.81,1.45-2.8,1.59a31.39,31.39,0,0,1-7.9.47,21.83,21.83,0,0,1-7.56-2.78c-2.11-.66-4.19-1.42-6.34-1.91a4.12,4.12,0,0,0-2.75.42c-2.57,1.44-4.85,2.28-6.85-.92-.28-.45-1.75-.3-2.66-.22-6.71.53-13.43,1.13-20.14,1.67-1.66.14-3.56-.34-4.94.32-3.74,1.79-6.93,1.29-10.26-1-2.21-1.5-4.14-1.34-5.77,1.42-2,3.41-5.13,3.34-9,2.81-5.44-.75-11.07-.11-16.62-.15q-11.94-.07-23.88-.3a2.4,2.4,0,0,1-1.79-.72c-3-5.2-7.78-3.72-12.36-3.48-8.48.43-16.35-2.14-24.2-5.08-2.94-1.11-6.37-1.05-9.59-1.2C501,409.4,495.32,410.34,490.88,403.28Z"
              transform="translate(196.3 -214.14)"/>
    </g>
    <g fill="url(#gradient3)" filter="url(#blurry3)">
        <path d="M566.47,221.86l3,2.11c1.92-.3,3.62-.64,5.33-.81,2.08-.21,4.28.47,6.14-1.07a1.71,1.71,0,0,1,.92-.2c5.09-.23,10.17-.55,15.26-.62,2.64,0,5.28.5,7.91.5s5.28-.33,7.92-.55c3.7-.31,7,1.13,10.29,2.43,1,.38,1.93.78,2.9,1.17a32.35,32.35,0,0,1,4,1.76l5.12,1.43c1.71.36,3.54,0,5.16,1.22a3,3,0,0,0,2.46.2q5.32-1.89,10.47-4.27l2.89-.22,2.1-1.66,2.47-.22a61.33,61.33,0,0,1,7.47-3.38,12.56,12.56,0,0,1,8.73.58c.95.41,2,.6,2.94,1,1.91.86,3.82,1.73,5.65,2.74a21.93,21.93,0,0,1,2.82,2.19l9.32-5.08a57.32,57.32,0,0,1,24.44,11,6.34,6.34,0,0,1-.87,5.95l-3.11,1.54a6.63,6.63,0,0,0,3.67,3.66c2.78,1.33,5.59,2.6,8.4,3.87,2.3,1,4.61,2,6.92,3.06.1.05.18.15.27.16,3.9.1,6.53,2.78,9.56,4.65.72.43,1.55.67,2.29,1.06,2,1.09,4.46,1.65,5.53,4.06a1.06,1.06,0,0,0,.45.44c4.13,2.25,6.08,6.34,8.66,9.94,1.8,2.5,1.16,5.59,2.72,7.79-1.15,3.36-4.49,2.53-6.58,4.22l-1,2.15-2.75,1.7c-2.29-.15-1.5-2.22-2.61-3.43l-2.4-.24c.13,1.33.22,2.33.34,3.55l-1.91,1.35-.08-.46c-3.18,0-6.35-.1-9.52,0-2.72.05-5.33-.12-7.34-1.89h-7.75c-2.83,2.23-5.74,1.71-9.16.69a36.45,36.45,0,0,0-11.49-2,4.65,4.65,0,0,0-1.85.39,6.59,6.59,0,0,1-7.95-.93c-7.12-.66-14.18-1.78-21.57.45a4.29,4.29,0,0,1-1.41-.47c-2.35-1.62-5.16-1.83-7.78-2.54a7.42,7.42,0,0,0-4.4.2c-2.66,1.05-5.33,1-8.09,1-5.63.05-11.25.36-16.87.6a8.14,8.14,0,0,1-4.9-1.07c-2.26-1.43-4.77-.67-7.25-.86-.89.5-1.8,1-2.91,1.67-2.71-1.91-5.61-.43-8.49-.17-3,.28-6.09.72-9.14,1a4.5,4.5,0,0,1-2.2-.17c-3.15-1.45-6.47-1-9.75-1.13a37.57,37.57,0,0,1-4.64-.81c-.93-.16-1.86-.32-2.8-.42-2.3-.27-4.6-.51-7.79-.86-3.12,1.37-7.32,1.74-11.61,1.48-2.2-.13-4.27.15-5.34,1.35l-5,.38c-.95.07-1.9.12-2.85.2-2.22.18-4.43.48-6.64.53a13.13,13.13,0,0,1-3.73-.52c-2.57-.71-5.12-1.67-7.81-1.25-2.38.36-4.71,1.06-7.49,1.72-1.9-.8-4.1-2.08-6.83-1.82a11.17,11.17,0,0,0-4.89,1.17,12.8,12.8,0,0,1-9.61,1.24c-3.11-.74-5.9.18-8.8.46a46.07,46.07,0,0,0-8.36,1.88,72.52,72.52,0,0,0-9.59,3.23c-2.68,1.2-5.53,1.42-8.25,2.27-4.24,1.32-8.43,2.79-12.63,4.24a5.3,5.3,0,0,0-1.61,1c-3.08,2.74-3.08,2.75-6.93,1.81-5.64,2.3-11.9,2.61-19.19,2.89L422,299.4l-2.72,1.72c-2.6-.65-5-2.95-8.55-1.38l-2,2.09L405.42,300c-3-.09-3.74.21-5.36,1.78-3.27,1-6,1.74-8.67,2.61-3,1-6,2-9.31,1.89a11.7,11.7,0,0,0-3.11.59c-5,1.18-10,.48-15,.62A13,13,0,0,0,358,309a62.16,62.16,0,0,1-9.53,3.56,4.63,4.63,0,0,1-2.53,0,16.21,16.21,0,0,0-6.9-.08c-4.06.58-8,2.1-12.23,1.58-1-.13-2.21.56-3.3.92-1.9.63-3.79,1.3-6.42,2.21-2.16,2.8-5.93,1.85-9.61,1.85-1.8-1.69-4.08-1.78-6.47-1.92-5.38-.31-10.78-.49-16.09-1.6a15.33,15.33,0,0,0-8.33.52l-12-4-3.75,1.23c-.65,1.44-1.3,3-3.49,3.09l-4.22-4.57c-2.07-1-3,.77-4,1.37a8,8,0,0,1-7.14-1.85,12.84,12.84,0,0,0-7.44-3.2c-2.07-.17-4-1.23-6.11-1.77-4.19-1.1-8.42-2.11-12.14-3l-6.8.46c-5.59.41-11.18,1-16.78,1.18-5.18.17-10.42.7-15.48-1.22a32.68,32.68,0,0,0-4.63-1l-4-7.05-6-1.74-2.53-2.26a6.14,6.14,0,0,1-5.48-.35c-1.09-.51-2.49-.36-4-.55-.91-.81-2-1.8-3.25-2.93h-7.17c-2.8-2.46-5.87-2.42-9.26-1.25l-5-2.11c-2.75.79-5.87,1.77-9,2.57-1.82.46-3.71.64-5.28.89-2.91-2.29-5.58-3-8.93-2.28-2.44.55-5.05.4-7.5,1.2-2.61.84-5,2.52-7.85,2.41a1.39,1.39,0,0,0-.86.39c-2.26,2.06-5,2-7.81,2a18.75,18.75,0,0,0-4,.71c-1.13.24-2.25.56-3.38.85l-3.71,4.21c-2.9.19-5.86.26-8.79.63a13.89,13.89,0,0,0-5,1.82c-4.12.23-8.26.33-12.37.76-1.74.19-3.4,1.09-5.46,1.79l-2.4-.48,0,.3c-2.29.29-4.62.44-6.87.93a15,15,0,0,1-6.57,0,7.21,7.21,0,0,0-2.79.45c-7.3,1.51-14.64,2.54-22.12,2a28.41,28.41,0,0,1-3.7-.72,11.45,11.45,0,0,0-2.78-.49,36.26,36.26,0,0,0-6,.77A7,7,0,0,0-20,306.77c-1.05.89-1.94,2-3,2.91-3.62,3.3-9.57,4.23-13.6,1.91a16,16,0,0,1-5.85-4.92c1.69-3.2,2.31-7.09,5-9.89,1.95-2,4.73-2.82,7.48-3.23a6.19,6.19,0,0,1,2.71.71c1.29.48,2.55,1.05,3.82,1.58,5.11-2.56,10.65-4.26,13.25-9.31L14,275.64c2-.08,4.8-.27,7.1-1.88,2.82-.24,5.59-.25,7.83-1.84,3.29-.78,6.75.91,9.7-1.35,10.74-.57,12.94-.43,15.51,1.16,6.51,0,13.22,0,19.93-.05a18,18,0,0,0,4-1.08l8.49-.82c1.73-.56,2.91-.95,4.09-1.31,2.86-.89,5.87-1.35,8.49-2.94a2.11,2.11,0,0,1,.62-.17c5-1.33,9.94-2.71,14.93-4,1.53-.39,3.13-.5,4.67-1l5.19-.84a40.38,40.38,0,0,0,4.47-.95c7-1.09,14.08-1.81,21.46.95h2.67l-.08.29,16.26,6c1.88.82,3.57,1.6,5.3,2.31,2.69,1.11,5.39,2.22,8.13,3.23,1.44.53,3,.84,4.41,1.38a16.8,16.8,0,0,1,6.62,1.83c2.34,1.31,5.07,1.93,7.63,2.85a3.92,3.92,0,0,1,1.15.47,25.35,25.35,0,0,0,10.92,4.77,8,8,0,0,1,3.46,1.44c1.8,1.48,3.84,1.67,5.88,2.12l7.07,1.66c2.32.59,4.12,1.07,5.92,1.52,2.13.53,4.45.67,6.34,1.65,2.26,1.18,4.69,1.06,7,1.78,1.78.56,3.49,1.42,5.38,1.48,2.42.08,4.84,0,7.26,0,2.65,0,5.31-.24,7.95-.12a7.57,7.57,0,0,1,2.85,1.26,18.51,18.51,0,0,0,3,1.78c3.19,1,6.14,2.51,9.26,3.62.95.34,2.31-.44,3.46-.8,2.2-.29,4.4-.71,6.61-.83,3.47-.18,6.89-.07,10.18,1.56a13.11,13.11,0,0,0,5,.87,55.11,55.11,0,0,0,13.33-.7,4.1,4.1,0,0,0,1.48-.85c2.86-.35,5.28-.65,7.69-.93s4.73.73,6.71-1.25c4.07.15,7.87-1.07,11.66-2.44a12.9,12.9,0,0,1,3.68-.76,13.61,13.61,0,0,0,6.11-1.46,4.85,4.85,0,0,1,1.81-.47,26.52,26.52,0,0,0,7.28-2c5.05-2.08,10.09-4.2,15.54-5.15a31.83,31.83,0,0,0,5.69-1.87c2.63-1,5.25-2.05,7.83-3.17a16.6,16.6,0,0,0,2.06-1.44c1.32-.84,2.65-1.68,4-2.46a41,41,0,0,1,4.49-2.38c4.25-1.76,8.82-2.06,13.32-2.64.72-.1,1.45-.11,2.64-.2-.57-.74-.81-1.34-1.23-1.52a3.61,3.61,0,0,0-1.88-.19c-2.82.41-5.63.9-8.44,1.35-2.5.39-5,.76-7.51,1.16-1.15.18-2.29.41-3.62.65a5.52,5.52,0,0,1-1.6-.64c-2.29-1.83-5.12-1.94-7.79-2.48-2.48-.5-5-.71-8.25-1.15a89.25,89.25,0,0,0-9,1.18c-3.92.87-7.84.36-11.76.52a2.54,2.54,0,0,1-1.53-.3c-3-2.05-6.32-1.55-9.59-1.59-2.11,0-4.3.36-6.13-1.46-2.2.3-4.4.63-6.59.9-1.78.22-3.57.37-5.36.56-1.36.15-2.73.38-4.09.41a10.51,10.51,0,0,1-3.41-.34,13.36,13.36,0,0,0-7.52-.29c-2.74.72-5.47-.07-8.2-.45-1.77-.26-3.56-.41-5.35-.61a10.85,10.85,0,0,1-2.51-.3,5.68,5.68,0,0,0-4,.21,11.44,11.44,0,0,1-7.2.37,13.14,13.14,0,0,0-2.52-.27c-2.41-.2-4.83-.38-7.38-.58-2.61-4.9-7.68-7.34-10.53-12.37-.7,1-1.11,1.71-1.58,2.34s-1,1.2-1.53,1.79c-3-1.35-2.27-3.86-2.57-5.87-1.42-3.25-5.55-2.13-7.63-5.14l.69-4.26a18.34,18.34,0,0,1,8.4-2.89,34,34,0,0,0,8.82-2.48c3.74-1.49,7.32-3.36,10.95-5.09,3.12-1.5,6.32-1.46,9.66-1,2.4.37,4.86.33,7.26.77,1.73.28,3.45.67,5.19.81a37.85,37.85,0,0,0,5.43,0,24.09,24.09,0,0,0,4-.74c4.68-1.17,9.34-2,14.34.45.23,1.77.57,3.73.72,5.71a7.58,7.58,0,0,0,3.31,6.2c1.22.82,2.21,2,3.44,2.76a13.87,13.87,0,0,0,3.43,1.58,38.69,38.69,0,0,0,4,.84l1,1.46c6.57,1.51,12.83,1.41,18.78-1.66a22.13,22.13,0,0,0,3.34-2.39c.84-.65,1.58-1.43,2.44-2a8.78,8.78,0,0,1,8.44-1.16,43.92,43.92,0,0,0,7.08,1.68,24.71,24.71,0,0,0,4.11-.14c2.42,0,4.84,0,7.26,0,.84,0,1.69.26,2.52.22,2.75-.15,5.49-.37,8.24-.6,1.25-.11,2.5-.31,3.85-.48,5,2,8.42,1.52,11.27-1.87l-2.6-1.51c.33-2.19.76-2.83,2.43-3.07a8.5,8.5,0,0,1,3.18,0c4.43,1.1,8.91.34,13.36.52a5.05,5.05,0,0,0,2.15-.47c3.15-1.39,6.59-2.15,9.45-4.2a3.82,3.82,0,0,1,1.45-.62,65.83,65.83,0,0,0,10-3.41c1.82-.69,4-.41,5.24-1.72l5.14-1.3c7.66-1.66,15.38-1,23.51-.15,2,.77,4.16,2.33,6.91,2.52,1.16.08,2.27,1,3.44,1.34l7.62,1.85-.08.4H525c7.91-3.73,15.45-8.06,24-10.15h11c1.85,1.26,3.87,2.46,6.48,1.69v-3Z"
              transform="translate(196.3 -214.14)"/>
    </g>
</svg>
